<svg xmlns="http://www.w3.org/2000/svg" xmlns:xlink="http://www.w3.org/1999/xlink" width="900" zoomAndPan="magnify" viewBox="0 0 675 675.000002" height="900" preserveAspectRatio="xMidYMid meet" version="1.0"><defs><g/><clipPath id="06a8899675"><path d="M 0.5 0 L 674.5 0 L 674.5 674 L 0.5 674 Z M 0.5 0 " clip-rule="nonzero"/></clipPath><clipPath id="a1946d22e3"><path d="M 235.847656 162.652344 L 438.796875 162.652344 L 438.796875 359.609375 L 235.847656 359.609375 Z M 235.847656 162.652344 " clip-rule="nonzero"/></clipPath></defs><g clip-path="url(#06a8899675)"><path fill="#ffffff" d="M 0.5 0 L 674.5 0 L 674.5 674 L 0.5 674 Z M 0.5 0 " fill-opacity="1" fill-rule="nonzero"/><path fill="#ffffff" d="M 0.5 0 L 674.5 0 L 674.5 674 L 0.5 674 Z M 0.5 0 " fill-opacity="1" fill-rule="nonzero"/></g><g clip-path="url(#a1946d22e3)"><path fill="#da251e" d="M 384.117188 272.742188 C 401.488281 272.742188 415.683594 286.9375 415.683594 304.28125 C 415.683594 321.648438 401.488281 335.84375 384.117188 335.84375 L 303.699219 335.84375 C 297.25 335.84375 291.953125 341.117188 291.953125 347.589844 C 291.953125 354.039062 297.25 359.335938 303.699219 359.335938 L 384.117188 359.335938 C 414.382812 359.335938 439.148438 334.570312 439.148438 304.28125 C 439.148438 286.761719 430.851562 271.09375 418.007812 260.996094 C 430.851562 250.902344 439.148438 235.207031 439.148438 217.6875 C 439.148438 187.425781 414.382812 162.660156 384.117188 162.660156 L 303.699219 162.660156 C 297.25 162.660156 291.953125 167.929688 291.953125 174.402344 C 291.953125 180.851562 297.25 186.148438 303.699219 186.148438 L 384.117188 186.148438 C 401.488281 186.148438 415.683594 200.34375 415.683594 217.6875 C 415.683594 235.058594 401.488281 249.25 384.117188 249.25 L 325.289062 249.25 C 318.816406 249.25 313.542969 254.523438 313.542969 260.996094 C 313.542969 267.445312 318.816406 272.742188 325.289062 272.742188 Z M 284.503906 316.027344 L 382.09375 316.027344 C 388.542969 316.027344 393.839844 310.753906 393.839844 304.28125 C 393.839844 297.832031 388.542969 292.535156 382.09375 292.535156 L 276.933594 292.535156 C 270.484375 292.535156 265.210938 297.832031 265.210938 304.28125 C 265.210938 310.753906 270.484375 316.027344 276.933594 316.027344 Z M 284.503906 229.433594 L 382.09375 229.433594 C 388.542969 229.433594 393.839844 224.160156 393.839844 217.6875 C 393.839844 211.242188 388.542969 205.941406 382.09375 205.941406 L 276.933594 205.941406 C 270.484375 205.941406 265.210938 211.242188 265.210938 217.6875 C 265.210938 224.160156 270.484375 229.433594 276.933594 229.433594 Z M 296.375 260.996094 C 296.375 254.523438 291.101562 249.25 284.65625 249.25 L 247.59375 249.25 C 241.121094 249.25 235.847656 254.523438 235.847656 260.996094 C 235.847656 267.445312 241.121094 272.742188 247.59375 272.742188 L 284.65625 272.742188 C 291.101562 272.742188 296.375 267.445312 296.375 260.996094 Z M 296.375 260.996094 " fill-opacity="1" fill-rule="evenodd"/></g><g fill="#100f0d" fill-opacity="1"><g transform="translate(204.254719, 446.879277)"><g><path d="M 26.359375 0 C 28.410156 0 35.511719 0 40.5625 -3.824219 C 43.5 -6.078125 45.753906 -10.3125 45.753906 -15.433594 C 45.753906 -21.785156 42.339844 -26.019531 36.125 -27.382812 C 40.632812 -29.226562 43.089844 -33.324219 43.089844 -39.0625 C 43.089844 -42.75 42.066406 -45.480469 40.019531 -47.597656 C 37.148438 -50.601562 32.234375 -52.105469 25.402344 -52.105469 L 4.097656 -52.105469 L 4.097656 0 Z M 16.320312 -41.179688 L 22.742188 -41.179688 C 26.292969 -41.179688 28.066406 -40.835938 29.226562 -39.949219 C 30.320312 -39.128906 30.867188 -37.902344 30.867188 -36.195312 C 30.867188 -32.777344 28.683594 -31.070312 24.378906 -31.070312 L 16.320312 -31.070312 Z M 16.320312 -21.511719 L 25.675781 -21.511719 C 30.664062 -21.511719 33.53125 -20.761719 33.53125 -16.457031 C 33.53125 -14.546875 32.984375 -13.316406 31.960938 -12.496094 C 30.390625 -11.199219 27.863281 -10.925781 24.789062 -10.925781 L 16.320312 -10.925781 Z M 16.320312 -21.511719 "/></g></g></g><g fill="#100f0d" fill-opacity="1"><g transform="translate(255.469023, 446.879277)"><g><path d="M 39.675781 0 L 39.675781 -10.925781 L 16.320312 -10.925781 L 16.320312 -20.625 L 37.421875 -20.625 L 37.421875 -31.480469 L 16.320312 -31.480469 L 16.320312 -41.179688 L 39.675781 -41.179688 L 39.675781 -52.105469 L 4.097656 -52.105469 L 4.097656 0 Z M 39.675781 0 "/></g></g></g><g fill="#100f0d" fill-opacity="1"><g transform="translate(301.288826, 446.879277)"><g><path d="M 27.453125 0 L 27.453125 -41.179688 L 42.136719 -41.179688 L 42.136719 -52.105469 L 0.546875 -52.105469 L 0.546875 -41.179688 L 15.230469 -41.179688 L 15.230469 0 Z M 27.453125 0 "/></g></g></g><g fill="#100f0d" fill-opacity="1"><g transform="translate(347.176924, 446.879277)"><g><path d="M 27.453125 0 L 27.453125 -41.179688 L 42.136719 -41.179688 L 42.136719 -52.105469 L 0.546875 -52.105469 L 0.546875 -41.179688 L 15.230469 -41.179688 L 15.230469 0 Z M 27.453125 0 "/></g></g></g><g fill="#100f0d" fill-opacity="1"><g transform="translate(393.065011, 446.879277)"><g><path d="M 39.675781 0 L 39.675781 -10.925781 L 16.320312 -10.925781 L 16.320312 -20.625 L 37.421875 -20.625 L 37.421875 -31.480469 L 16.320312 -31.480469 L 16.320312 -41.179688 L 39.675781 -41.179688 L 39.675781 -52.105469 L 4.097656 -52.105469 L 4.097656 0 Z M 39.675781 0 "/></g></g></g><g fill="#100f0d" fill-opacity="1"><g transform="translate(438.884809, 446.879277)"><g><path d="M 37.695312 -22.332031 C 42.269531 -24.925781 45.140625 -29.773438 45.140625 -36.398438 C 45.140625 -47.734375 38.242188 -52.105469 28.683594 -52.105469 L 4.097656 -52.105469 L 4.097656 0 L 16.320312 0 L 16.320312 -20.078125 L 26.222656 -20.078125 L 33.804688 0 L 46.710938 0 Z M 26.972656 -41.179688 C 30.933594 -41.179688 33.050781 -39.402344 33.050781 -35.988281 C 33.050781 -32.4375 30.933594 -30.664062 26.972656 -30.664062 L 16.320312 -30.664062 L 16.320312 -41.179688 Z M 26.972656 -41.179688 "/></g></g></g></svg>